<svg xmlns="http://www.w3.org/2000/svg" viewBox="0 0 294.774 294.774"><path d="M251.63 43.18c-11.295-11.296-23.93-20.473-37.556-27.277a6 6 0 1 0-5.36 10.735c12.466 6.226 24.05 14.646 34.43 25.026 52.802 52.8 52.802 138.714 0 191.515s-138.713 52.8-191.514 0-52.8-138.715 0-191.516C77.207 26.086 111.215 12 147.386 12a6 6 0 0 0 0-12C108.01 0 70.99 15.334 43.144 43.18c-57.48 57.478-57.48 151.005 0 208.484 28.74 28.74 66.49 43.11 104.243 43.11s75.503-14.37 104.243-43.11c57.48-57.48 57.48-151.006 0-208.485z"/><path d="M147.387 51.992a6 6 0 0 0-6 6v178.86a6 6 0 0 0 12 0V57.99a6 6 0 0 0-6-6zM171.387 153.42h65.43a6 6 0 0 0 0-12h-65.43a6 6 0 0 0 0 12zM57.957 141.42a6 6 0 0 0 0 12h63.43a6 6 0 0 0 0-12h-63.43z"/></svg>