<svg xmlns="http://www.w3.org/2000/svg" viewBox="0 0 294.843 294.843"><path d="M6 40.77a6 6 0 0 0 6-6c0-9.256 7.53-16.786 16.786-16.786H82.46l42.244 46.147a6 6 0 0 0 4.426 1.95h136.928c9.256 0 16.786 7.53 16.786 16.786a6 6 0 0 0 12 0c0-15.873-12.913-28.786-28.786-28.786H131.77L89.53 7.933a6 6 0 0 0-4.427-1.95H28.786C12.913 5.984 0 18.898 0 34.77a6 6 0 0 0 6 6z"/><path d="M266.057 94.104H131.77L89.53 47.957a6 6 0 0 0-4.427-1.95H28.786C12.913 46.008 0 58.922 0 74.794V193.42a6 6 0 0 0 12 0V74.794c0-9.256 7.53-16.786 16.786-16.786H82.46l42.244 46.147a6 6 0 0 0 4.426 1.95h136.928c9.256 0 16.786 7.53 16.786 16.785v137.183c0 9.255-7.53 16.786-16.786 16.786H28.786C19.53 276.86 12 269.33 12 260.072a6 6 0 0 0-12 0c0 15.873 12.913 28.786 28.786 28.786h237.27c15.874 0 28.787-12.914 28.787-28.787V122.89c0-15.873-12.913-28.786-28.786-28.786z"/></svg>