<svg xmlns="http://www.w3.org/2000/svg" viewBox="0 0 191.255 191.255"><path d="M162.93 66.612a6 6 0 0 0-6.35 10.183c6.543 4.08 10.45 11.12 10.45 18.832s-3.907 14.752-10.45 18.833L58.16 175.827c-6.943 4.33-15.36 4.542-22.512.573-7.154-3.97-11.425-11.226-11.425-19.407V34.263c0-8.182 4.27-15.437 11.425-19.407 7.153-3.97 15.57-3.756 22.512.573l57.292 35.722a6 6 0 0 0 6.35-10.183L64.514 5.247c-10.697-6.67-23.662-7-34.686-.883-11.02 6.116-17.6 17.293-17.6 29.898v122.73c0 12.605 6.58 23.782 17.6 29.898 5.25 2.913 10.94 4.364 16.617 4.364 6.24 0 12.467-1.754 18.068-5.247l98.417-61.365c10.08-6.287 16.1-17.133 16.1-29.015s-6.02-22.728-16.1-29.015z"/></svg>