<svg xmlns="http://www.w3.org/2000/svg" viewBox="0 0 320.001 320.001"><path d="M284.547 31.297C265.102 11.115 239.22 0 211.67 0c-27.552 0-53.434 11.115-72.88 31.297-31.126 32.304-37.968 80.414-20.53 119.67L12.276 260.964c-8.994 9.333-8.995 24.52 0 33.856L29.6 312.804C34.074 317.446 40.05 320 46.427 320c6.378 0 12.354-2.557 16.826-7.2l105.604-109.6c13.26 6.28 27.786 9.594 42.81 9.594 27.553 0 53.435-11.114 72.88-31.295 39.9-41.414 39.9-108.794 0-150.203zM48.85 298.924c-.856.89-1.79 1.077-2.425 1.077-.633 0-1.567-.186-2.424-1.074l-17.323-17.98c-1.594-1.655-1.595-4.45 0-6.104L128.55 169.11a105.605 105.605 0 0 0 22.76 23.474l-102.46 106.34zM270.145 167.62c-15.64 16.233-36.407 25.173-58.476 25.173-22.067 0-42.835-8.94-58.476-25.172-32.527-33.76-32.527-88.688 0-122.446C168.834 28.94 189.602 20 211.67 20s42.834 8.94 58.475 25.174c32.527 33.758 32.527 88.687 0 122.447z"/><path d="M258.275 58.5c-12.43-12.9-28.98-20.005-46.605-20.005-17.625 0-34.177 7.106-46.606 20.006-25.448 26.41-25.448 69.384 0 95.793 12.43 12.9 28.98 20.006 46.606 20.006 17.624 0 34.176-7.107 46.605-20.007 25.447-26.41 25.447-69.382 0-95.792zm-12.724 83.533c-9.068 9.413-21.1 14.597-33.88 14.597-12.782 0-24.814-5.184-33.883-14.597-18.935-19.65-18.935-51.623 0-71.273 9.07-9.413 21.102-14.597 33.882-14.597 12.78 0 24.81 5.184 33.88 14.597 18.936 19.65 18.936 51.623 0 71.273z"/></svg>