<svg xmlns="http://www.w3.org/2000/svg" viewBox="0 0 294.843 294.843"><path d="M278.527 79.946c-10.324-20.023-25.38-37.704-43.538-51.132a6 6 0 0 0-7.136 9.65c16.687 12.34 30.52 28.585 40.008 46.982 9.94 19.277 14.98 40.128 14.98 61.976 0 74.67-60.75 135.42-135.42 135.42S12 222.093 12 147.423 72.75 12 147.42 12a6 6 0 0 0 0-12C66.134 0 0 66.133 0 147.42s66.133 147.422 147.42 147.422 147.422-66.133 147.422-147.42c0-23.445-5.64-46.777-16.315-67.476z"/><path d="M109.7 78.97a6.002 6.002 0 0 0-3.036 5.215V215.86a6 6 0 0 0 12 0V94.74l88.833 52.883-65.324 42.087a6 6 0 0 0 6.5 10.087l73.465-47.333a6 6 0 0 0-.18-10.2L115.732 79.03a6 6 0 0 0-6.034-.06z"/></svg>