<?xml version="1.0" encoding="iso-8859-1"?>
<!-- Generator: Adobe Illustrator 18.0.0, SVG Export Plug-In . SVG Version: 6.00 Build 0)  -->
<!DOCTYPE svg PUBLIC "-//W3C//DTD SVG 1.1//EN" "http://www.w3.org/Graphics/SVG/1.1/DTD/svg11.dtd">
<svg version="1.1" id="Capa_1" xmlns="http://www.w3.org/2000/svg" xmlns:xlink="http://www.w3.org/1999/xlink" x="0px" y="0px"
	 viewBox="0 0 320.001 320.001" style="enable-background:new 0 0 320.001 320.001;" xml:space="preserve">
<g>
	<path d="M284.547,31.297C265.102,11.115,239.22,0,211.669,0c-27.551,0-53.433,11.115-72.878,31.297
		c-31.127,32.304-37.969,80.414-20.53,119.67L12.275,260.964c-8.994,9.333-8.995,24.521-0.001,33.856L29.6,312.804
		c4.474,4.642,10.45,7.197,16.827,7.197c6.378-0.001,12.354-2.558,16.826-7.2l105.604-109.6c13.259,6.279,27.786,9.593,42.811,9.593
		c27.552,0,53.434-11.114,72.878-31.295C324.447,140.086,324.447,72.706,284.547,31.297z M48.851,298.924
		c-0.857,0.89-1.792,1.077-2.426,1.077c-0.633,0-1.567-0.187-2.424-1.075l-17.324-17.981c-1.594-1.654-1.595-4.449-0.001-6.103
		L128.552,169.11c3.057,4.332,6.469,8.476,10.238,12.388c3.924,4.072,8.114,7.769,12.523,11.086L48.851,298.924z M270.144,167.621
		c-15.641,16.232-36.407,25.172-58.476,25.172c-22.067,0-42.835-8.939-58.476-25.172c-32.527-33.76-32.527-88.689,0-122.447
		C168.834,28.94,189.601,20,211.669,20c22.068,0,42.835,8.94,58.476,25.174C302.672,78.932,302.672,133.861,270.144,167.621z"/>
	<path d="M258.275,58.501c-12.43-12.901-28.981-20.006-46.605-20.006c-17.625,0-34.177,7.106-46.606,20.006
		c-25.448,26.409-25.448,69.383,0,95.792c12.43,12.901,28.981,20.006,46.606,20.006c17.624,0,34.176-7.106,46.605-20.006
		C283.722,127.882,283.722,84.911,258.275,58.501z M245.551,142.033c-9.069,9.413-21.102,14.597-33.882,14.597
		c-12.781,0-24.813-5.184-33.882-14.597c-18.935-19.65-18.935-51.623,0-71.273c9.069-9.413,21.102-14.597,33.882-14.597
		c12.78,0,24.812,5.184,33.882,14.597C264.486,90.41,264.486,122.383,245.551,142.033z"/>
</g>
<g>
</g>
<g>
</g>
<g>
</g>
<g>
</g>
<g>
</g>
<g>
</g>
<g>
</g>
<g>
</g>
<g>
</g>
<g>
</g>
<g>
</g>
<g>
</g>
<g>
</g>
<g>
</g>
<g>
</g>
</svg>
